<?xml version="1.0" standalone="no"?>
<!DOCTYPE svg PUBLIC "-//W3C//DTD SVG 20010904//EN"
 "http://www.w3.org/TR/2001/REC-SVG-20010904/DTD/svg10.dtd">
<svg version="1.0" xmlns="http://www.w3.org/2000/svg"
 width="1280.000000pt" height="949.000000pt" viewBox="0 0 1280.000000 949.000000"
 preserveAspectRatio="xMidYMid meet">
<g transform="translate(0.000000,949.000000) scale(0.100000,-0.100000)"
fill="#000000" stroke="none">
<path d="M2786 9448 c-108 -186 -195 -423 -242 -663 -28 -140 -26 -485 4 -621
42 -194 110 -369 207 -529 26 -44 49 -82 51 -84 3 -3 31 0 374 48 118 17 589
82 1045 146 534 74 871 126 945 144 219 55 376 127 446 204 l34 37 0 -145 0
-145 175 0 175 0 0 -285 0 -285 -22 -4 c-13 -3 -61 -12 -106 -21 -253 -48
-472 -162 -639 -330 -154 -155 -252 -335 -297 -546 l-6 -26 -470 5 -470 5 0
-575 c0 -316 -3 -683 -7 -816 l-6 -242 473 0 472 0 -7 -45 c-9 -67 -40 -148
-86 -234 -46 -86 -137 -215 -178 -255 l-28 -26 -769 0 -769 0 -315 315 -315
315 -952 0 -952 0 -57 -101 c-514 -917 -629 -1953 -324 -2914 76 -237 227
-574 328 -731 l40 -61 98 -6 c55 -4 486 -7 959 -7 l860 0 310 310 310 310 455
0 455 0 25 -47 c116 -220 341 -476 570 -650 314 -238 694 -404 1118 -488 619
-123 1273 -89 1805 95 600 207 1107 639 1378 1175 l52 103 245 7 c318 10 646
1 732 -19 99 -24 150 -41 220 -75 246 -120 394 -336 463 -675 19 -97 22 -141
22 -351 -1 -248 -11 -356 -56 -559 -10 -49 -17 -91 -15 -94 3 -2 511 -6 1130
-9 l1126 -6 0 24 c0 13 -9 123 -20 244 -91 1003 -264 1728 -550 2310 -206 418
-455 716 -775 930 -304 203 -649 310 -1105 345 -231 17 -413 14 -1006 -21
-443 -25 -785 51 -1064 236 -194 129 -371 358 -445 575 l-24 70 463 0 463 0 6
347 c4 190 7 555 7 810 l0 463 -213 0 c-118 0 -329 3 -469 7 l-255 6 -12 80
c-65 424 -413 713 -986 818 -66 12 -123 25 -127 28 -4 4 -5 134 -1 289 l6 282
139 0 138 0 0 136 0 137 43 -40 c57 -53 113 -85 222 -126 178 -69 307 -92
1440 -257 604 -88 1106 -160 1115 -160 28 0 153 229 208 380 70 193 96 346 96
560 -1 235 -39 439 -123 664 -37 98 -125 282 -153 319 -13 18 -27 17 -353 -28
-1660 -225 -1872 -257 -2005 -301 -119 -40 -273 -118 -402 -205 l-87 -59 -3
148 -3 147 -657 3 -658 2 0 -150 0 -151 -52 39 c-152 111 -356 214 -508 256
-46 13 -362 65 -646 106 -534 77 -1611 230 -1621 230 -7 0 -23 -19 -37 -42z"/>
</g>
</svg>
